<?xml version="1.0" standalone="no"?>
<!DOCTYPE svg PUBLIC "-//W3C//DTD SVG 20010904//EN"
 "http://www.w3.org/TR/2001/REC-SVG-20010904/DTD/svg10.dtd">
<svg version="1.0" xmlns="http://www.w3.org/2000/svg"
 width="1294.000000pt" height="838.000000pt" viewBox="0 0 1294.000000 838.000000"
 preserveAspectRatio="xMidYMid meet">

<g transform="translate(0.000000,838.000000) scale(0.100000,-0.100000)"
fill="#000000" stroke="none">
<path d="M0 4190 l0 -4190 6470 0 6470 0 0 4190 0 4190 -6470 0 -6470 0 0
-4190z m4021 510 c10 -6 19 -20 19 -31 0 -30 -299 -872 -315 -888 -19 -19 -68
-4 -73 22 -4 18 293 872 311 895 12 15 32 15 58 2z m2169 -202 l0 -132 28 27
c54 52 165 53 209 2 34 -39 44 -93 41 -227 l-3 -123 -27 -3 -28 -3 0 124 c0
136 -9 178 -45 201 -37 24 -97 20 -128 -8 -35 -33 -47 -84 -47 -209 l0 -108
-27 3 -28 3 -3 293 -2 292 30 0 30 0 0 -132z m858 -160 l-3 -293 -27 -3 -28
-3 0 295 0 296 30 0 30 0 -2 -292z m334 118 l3 -175 87 75 c80 68 91 75 125
72 l38 -3 -98 -84 -98 -85 101 -101 c55 -55 100 -104 100 -108 0 -4 -15 -7
-33 -7 -28 0 -46 14 -127 95 l-95 96 -5 -93 c-5 -93 -5 -93 -32 -96 l-28 -3 0
295 0 296 30 0 30 0 2 -174z m358 42 l0 -132 28 27 c47 45 153 54 198 16 40
-33 48 -70 49 -219 l0 -145 -27 -3 -28 -3 0 124 c0 68 -5 138 -11 156 -21 60
-114 82 -162 37 -35 -33 -47 -84 -47 -209 l0 -108 -27 3 -28 3 -3 293 -2 292
30 0 30 0 0 -132z m1468 100 c16 -16 15 -53 -3 -68 -22 -18 -49 -8 -60 24 -8
23 -6 30 10 42 23 17 37 18 53 2z m970 0 c21 -21 14 -57 -13 -70 -30 -14 -55
3 -55 38 0 35 44 56 68 32z m-6933 -74 c9 -9 15 -28 13 -43 -3 -23 -27 -38
-220 -136 l-218 -110 218 -110 217 -110 0 -35 c0 -28 -5 -36 -25 -43 -21 -8
-61 10 -264 116 -131 69 -247 132 -257 141 -24 20 -24 58 -1 79 21 19 492 266
509 267 6 0 19 -7 28 -16z m1489 -110 c132 -70 247 -131 254 -136 6 -6 12 -25
12 -44 0 -39 12 -31 -290 -189 -113 -59 -216 -108 -229 -108 -34 -3 -62 43
-42 67 8 9 108 65 224 123 l210 106 -216 108 c-183 93 -216 113 -221 135 -8
29 16 64 42 64 8 0 123 -57 256 -126z m1246 -3 c48 -33 59 -73 61 -226 l1
-140 -25 -3 c-20 -3 -25 2 -30 28 l-7 30 -20 -20 c-28 -28 -63 -40 -117 -40
-38 0 -50 5 -79 34 -29 29 -34 41 -34 79 0 77 66 117 194 117 l56 0 0 34 c0
47 -37 76 -96 76 -37 0 -47 -5 -72 -36 -22 -26 -36 -35 -53 -32 -29 4 -27 32
4 66 55 60 156 75 217 33z m2398 -8 c34 -25 63 -84 70 -139 l5 -44 -157 0
-157 0 6 -22 c19 -64 76 -108 139 -108 33 0 45 7 78 41 28 30 43 39 58 34 26
-8 25 -26 -1 -59 -64 -81 -213 -87 -280 -10 -78 89 -64 242 26 303 63 43 159
44 213 4z m620 6 c40 -25 50 -65 54 -219 l3 -145 -27 -3 c-25 -3 -28 0 -28 28
l0 31 -36 -27 c-41 -31 -126 -44 -163 -24 -31 16 -61 69 -61 108 0 69 76 112
198 112 34 0 62 3 62 8 0 34 -24 80 -46 90 -55 26 -144 -1 -144 -44 0 -9 -11
-14 -30 -14 -23 0 -30 5 -30 19 0 22 34 67 63 83 51 28 138 26 185 -3z m532 7
c14 -6 35 -31 48 -56 20 -39 22 -59 22 -182 l0 -138 -25 0 c-20 0 -27 6 -32
30 -6 31 -6 31 -27 12 -34 -32 -62 -42 -110 -42 -81 0 -137 75 -112 150 15 48
67 72 168 78 l78 5 0 29 c0 73 -113 109 -165 52 -14 -15 -25 -31 -25 -35 0
-13 -48 -11 -55 1 -9 15 30 74 58 89 55 30 121 32 177 7z m437 -6 c43 -27 53
-70 53 -225 l0 -145 -25 0 -25 0 0 113 c0 61 -5 129 -10 149 -29 102 -162 104
-200 3 -6 -15 -10 -80 -10 -146 l0 -119 -30 0 -30 0 0 195 0 195 30 0 c27 0
30 -3 30 -32 l0 -32 28 27 c46 44 132 52 189 17z m-4407 -17 c0 -37 0 -37 16
-15 20 29 66 52 104 52 27 0 30 -3 30 -30 0 -27 -3 -30 -33 -30 -37 0 -71 -20
-89 -53 -8 -13 -15 -74 -18 -147 l-5 -125 -27 -3 -28 -3 0 195 0 196 25 0 c22
0 25 -4 25 -37z m1052 -98 c3 -116 6 -138 24 -162 29 -38 84 -52 128 -31 53
26 66 66 66 207 l0 121 30 0 30 0 -2 -192 -3 -193 -27 -3 c-25 -3 -28 0 -28
29 l0 32 -22 -20 c-37 -33 -64 -43 -116 -43 -35 0 -57 6 -77 22 -46 36 -55 73
-55 228 l0 140 24 0 c24 0 24 -1 28 -135z m1969 100 c4 -16 7 -25 8 -18 2 19
66 53 100 53 28 0 31 -3 31 -30 0 -27 -3 -30 -33 -30 -37 0 -71 -20 -89 -53
-8 -13 -15 -75 -18 -147 l-5 -125 -27 -3 -28 -3 0 196 0 196 27 -3 c22 -2 29
-10 34 -33z m629 -215 c0 -161 -4 -258 -11 -273 -14 -30 -43 -46 -89 -49 -31
-3 -35 0 -38 23 -3 23 1 27 22 27 55 0 56 3 56 273 l0 249 30 0 30 0 0 -250z
m965 55 l0 -190 -27 -3 -28 -3 0 196 0 196 28 -3 27 -3 0 -190z"/>
<path d="M5825 4208 c-64 -36 -36 -118 40 -118 57 0 115 53 115 105 0 24 -2
25 -67 25 -38 0 -77 -6 -88 -12z"/>
<path d="M8206 4365 c-24 -18 -56 -65 -56 -82 0 -10 31 -13 120 -13 77 0 120
4 120 10 0 22 -30 68 -54 84 -31 20 -104 21 -130 1z"/>
<path d="M8826 4199 c-15 -12 -26 -30 -26 -44 0 -31 44 -65 86 -65 35 0 89 38
98 68 2 9 7 27 11 40 6 21 4 22 -68 22 -60 0 -79 -4 -101 -21z"/>
<path d="M9383 4210 c-22 -9 -43 -39 -43 -60 0 -6 11 -22 25 -35 45 -46 128
-25 159 39 29 61 24 66 -51 65 -38 0 -78 -4 -90 -9z"/>
</g>
</svg>
